<?xml version="1.0" encoding="UTF-8"?>
<!DOCTYPE svg PUBLIC "-//W3C//DTD SVG 1.1//EN" "http://www.w3.org/Graphics/SVG/1.1/DTD/svg11.dtd">
<!-- Creator: CorelDRAW 2019 (64-Bit) -->
<svg xmlns="http://www.w3.org/2000/svg" xml:space="preserve" width="5.44304in" height="2.31143in" version="1.1" style="shape-rendering:geometricPrecision; text-rendering:geometricPrecision; image-rendering:optimizeQuality; fill-rule:evenodd; clip-rule:evenodd"
viewBox="0 0 5177.24 2198.56"
 xmlns:xlink="http://www.w3.org/1999/xlink">
 <defs>
  <style type="text/css">
   <![CDATA[
    .str1 {stroke:#FEFEFE;stroke-width:52.84;stroke-miterlimit:2.61313}
    .str0 {stroke:#ED3237;stroke-width:6.61;stroke-miterlimit:2.61313}
    .fil1 {fill:none}
    .fil0 {fill:#ED3237}
    .fil2 {fill:#FEFEFE;fill-rule:nonzero}
   ]]>
  </style>
 </defs>
 <g id="Layer_x0020_1">
  <metadata id="CorelCorpID_0Corel-Layer"/>
  <rect class="fil0" x="0" y="0" width="5177.24" height="2198.56"/>
  <polyline class="fil1 str0" points="673.94,1344.56 1238.53,741.72 1496.84,971.39 1506.44,713.02 1726.51,713.02 1726.51,1172.3 1902.53,1346.87 "/>
  <rect class="fil1 str1" x="445.37" y="222.54" width="1697.52" height="1697.52" rx="315.85" ry="315.85"/>
  <line class="fil1 str0" x1="2358.92" y1="1403.64" x2="4776.06" y2= "1403.64" />
  <polygon class="fil2" points="2809.09,756.88 2809.09,1229.31 2722.27,1229.31 2722.27,830.67 2520.42,830.67 2520.42,1229.31 2433.6,1229.31 2433.6,756.88 "/>
  <path id="1" class="fil2" d="M3271.99 992.73c0,-28.82 -3.5,-53.9 -10.61,-75.48 -6.99,-21.58 -16.76,-39.55 -29.3,-53.9 -12.42,-14.35 -27.25,-25.08 -44.38,-32.2 -17.12,-7.12 -35.93,-10.61 -56.43,-10.61 -20.5,0 -39.31,3.49 -56.43,10.61 -17.12,7.12 -31.95,17.85 -44.38,32.2 -12.54,14.35 -22.31,32.31 -29.3,53.9 -7.12,21.58 -10.61,46.66 -10.61,75.48 0,28.7 3.5,53.9 10.61,75.48 6.99,21.58 16.76,39.43 29.3,53.78 12.42,14.23 27.25,24.96 44.38,32.2 17.12,7.11 35.93,10.73 56.43,10.73 20.5,0 39.31,-3.62 56.43,-10.73 17.12,-7.23 31.95,-17.97 44.38,-32.2 12.54,-14.35 22.31,-32.19 29.3,-53.78 7.12,-21.58 10.61,-46.78 10.61,-75.48zm89.71 0c0,36.05 -5.06,69.09 -15.31,99.12 -10.25,30.02 -25.32,55.95 -44.98,77.53 -19.65,21.7 -43.77,38.59 -72.47,50.64 -28.58,11.93 -61.13,17.96 -97.67,17.96 -36.54,0 -69.09,-6.03 -97.67,-17.96 -28.7,-12.06 -52.81,-28.94 -72.47,-50.64 -19.65,-21.58 -34.61,-47.51 -44.85,-77.53 -10.25,-30.03 -15.43,-63.07 -15.43,-99.12 0,-36.05 5.18,-69.09 15.43,-99.12 10.25,-30.03 25.2,-55.95 44.85,-77.54 19.66,-21.7 43.77,-38.59 72.47,-50.64 28.58,-11.94 61.13,-17.97 97.67,-17.97 36.53,0 69.09,6.03 97.67,17.97 28.7,12.05 52.82,28.94 72.47,50.64 19.66,21.58 34.73,47.51 44.98,77.54 10.25,30.02 15.31,63.06 15.31,99.12z"/>
  <path id="2" class="fil2" d="M3780.83 756.88l0 72.35 -240.92 0 0 111.05c21.46,-1.69 40.75,-2.53 58,-2.53 37.26,0 69.57,3.13 96.82,9.4 27.25,6.15 49.8,15.32 67.76,27.25 17.97,12.06 31.23,26.77 39.91,44.13 8.8,17.48 13.14,37.38 13.14,59.69 0,28.7 -7.84,54.38 -23.51,77.17 -15.68,22.67 -39.55,40.39 -71.38,53.05 -17,6.88 -37.14,12.06 -60.65,15.56 -23.51,3.5 -51.73,5.31 -84.77,5.31l-122.15 0 0 -472.43 327.74 0zm-240.92 400.08l41 0c21.22,0 40.75,-1.21 58.48,-3.74 17.84,-2.41 33.04,-6.63 45.82,-12.54 12.66,-5.79 22.67,-13.74 29.91,-23.75 7.12,-10.01 10.73,-22.43 10.73,-37.26 0,-23.03 -10.37,-40.27 -31.23,-51.73 -20.86,-11.46 -54.5,-17.12 -100.92,-17.12 -16.76,0 -34.73,0.96 -53.78,2.77l0 143.37z"/>
  <path id="3" class="fil2" d="M4174.16 1109.21l-178.94 0 -45.82 120.1 -92.24 0 187.62 -472.43 79.1 0 187.62 472.43 -91.52 0 -45.82 -120.1zm-90.19 -238.75c-16.88,49.2 -31.83,90.44 -44.86,123.6l-16.04 42.81 123.23 0 -16.04 -42.69c-13.02,-33.4 -27.97,-74.64 -44.85,-123.72l-1.45 0z"/>
  <path id="4" class="fil2" d="M4595.11 1229.31l0 -177.61c-14.59,4.58 -32.19,8.56 -52.69,12.3 -20.5,3.62 -39.67,5.43 -57.64,5.43 -22.18,0 -41.48,-2.05 -58,-6.03 -16.52,-3.98 -30.62,-9.77 -42.44,-17.24 -11.69,-7.6 -21.34,-16.64 -28.82,-27.37 -7.35,-10.73 -13.26,-22.79 -17.48,-36.17 -3.5,-11.34 -5.91,-23.88 -7.23,-37.62 -1.33,-13.87 -1.93,-29.06 -1.93,-45.82l0 -142.29 86.82 0 0 143.73c0,12.06 0.48,22.79 1.45,32.19 0.97,9.41 2.66,17.48 5.31,24.36 4.94,13.87 13.14,23.87 24.48,30.02 11.46,6.15 27.01,9.17 46.78,9.17 17,0 34.37,-1.69 52.33,-5.07 17.84,-3.5 34.24,-7.47 49.07,-12.3l0 -222.11 86.82 0 0 472.43 -86.82 0z"/>
  <polyline class="fil1 str1" points="673.94,1344.56 1238.53,741.72 1496.84,971.39 1506.44,713.02 1726.51,713.02 1726.51,1172.3 1902.53,1346.87 "/>
  <line class="fil1 str1" x1="2358.92" y1="1403.64" x2="4776.06" y2= "1403.64" />
  <polygon class="fil2" points="2809.09,756.88 2809.09,1229.31 2722.27,1229.31 2722.27,830.67 2520.42,830.67 2520.42,1229.31 2433.6,1229.31 2433.6,756.88 "/>
  <path id="1" class="fil2" d="M3271.99 992.73c0,-28.82 -3.5,-53.9 -10.61,-75.48 -6.99,-21.58 -16.76,-39.55 -29.3,-53.9 -12.42,-14.35 -27.25,-25.08 -44.38,-32.2 -17.12,-7.12 -35.93,-10.61 -56.43,-10.61 -20.5,0 -39.31,3.49 -56.43,10.61 -17.12,7.12 -31.95,17.85 -44.38,32.2 -12.54,14.35 -22.31,32.31 -29.3,53.9 -7.12,21.58 -10.61,46.66 -10.61,75.48 0,28.7 3.5,53.9 10.61,75.48 6.99,21.58 16.76,39.43 29.3,53.78 12.42,14.23 27.25,24.96 44.38,32.2 17.12,7.11 35.93,10.73 56.43,10.73 20.5,0 39.31,-3.62 56.43,-10.73 17.12,-7.23 31.95,-17.97 44.38,-32.2 12.54,-14.35 22.31,-32.19 29.3,-53.78 7.12,-21.58 10.61,-46.78 10.61,-75.48zm89.71 0c0,36.05 -5.06,69.09 -15.31,99.12 -10.25,30.02 -25.32,55.95 -44.98,77.53 -19.65,21.7 -43.77,38.59 -72.47,50.64 -28.58,11.93 -61.13,17.96 -97.67,17.96 -36.54,0 -69.09,-6.03 -97.67,-17.96 -28.7,-12.06 -52.81,-28.94 -72.47,-50.64 -19.65,-21.58 -34.61,-47.51 -44.85,-77.53 -10.25,-30.03 -15.43,-63.07 -15.43,-99.12 0,-36.05 5.18,-69.09 15.43,-99.12 10.25,-30.03 25.2,-55.95 44.85,-77.54 19.66,-21.7 43.77,-38.59 72.47,-50.64 28.58,-11.94 61.13,-17.97 97.67,-17.97 36.53,0 69.09,6.03 97.67,17.97 28.7,12.05 52.82,28.94 72.47,50.64 19.66,21.58 34.73,47.51 44.98,77.54 10.25,30.02 15.31,63.06 15.31,99.12z"/>
  <path id="2" class="fil2" d="M3780.83 756.88l0 72.35 -240.92 0 0 111.05c21.46,-1.69 40.75,-2.53 58,-2.53 37.26,0 69.57,3.13 96.82,9.4 27.25,6.15 49.8,15.32 67.76,27.25 17.97,12.06 31.23,26.77 39.91,44.13 8.8,17.48 13.14,37.38 13.14,59.69 0,28.7 -7.84,54.38 -23.51,77.17 -15.68,22.67 -39.55,40.39 -71.38,53.05 -17,6.88 -37.14,12.06 -60.65,15.56 -23.51,3.5 -51.73,5.31 -84.77,5.31l-122.15 0 0 -472.43 327.74 0zm-240.92 400.08l41 0c21.22,0 40.75,-1.21 58.48,-3.74 17.84,-2.41 33.04,-6.63 45.82,-12.54 12.66,-5.79 22.67,-13.74 29.91,-23.75 7.12,-10.01 10.73,-22.43 10.73,-37.26 0,-23.03 -10.37,-40.27 -31.23,-51.73 -20.86,-11.46 -54.5,-17.12 -100.92,-17.12 -16.76,0 -34.73,0.96 -53.78,2.77l0 143.37z"/>
  <path id="3" class="fil2" d="M4174.16 1109.21l-178.94 0 -45.82 120.1 -92.24 0 187.62 -472.43 79.1 0 187.62 472.43 -91.52 0 -45.82 -120.1zm-90.19 -238.75c-16.88,49.2 -31.83,90.44 -44.86,123.6l-16.04 42.81 123.23 0 -16.04 -42.69c-13.02,-33.4 -27.97,-74.64 -44.85,-123.72l-1.45 0z"/>
  <path id="4" class="fil2" d="M4595.11 1229.31l0 -177.61c-14.59,4.58 -32.19,8.56 -52.69,12.3 -20.5,3.62 -39.67,5.43 -57.64,5.43 -22.18,0 -41.48,-2.05 -58,-6.03 -16.52,-3.98 -30.62,-9.77 -42.44,-17.24 -11.69,-7.6 -21.34,-16.64 -28.82,-27.37 -7.35,-10.73 -13.26,-22.79 -17.48,-36.17 -3.5,-11.34 -5.91,-23.88 -7.23,-37.62 -1.33,-13.87 -1.93,-29.06 -1.93,-45.82l0 -142.29 86.82 0 0 143.73c0,12.06 0.48,22.79 1.45,32.19 0.97,9.41 2.66,17.48 5.31,24.36 4.94,13.87 13.14,23.87 24.48,30.02 11.46,6.15 27.01,9.17 46.78,9.17 17,0 34.37,-1.69 52.33,-5.07 17.84,-3.5 34.24,-7.47 49.07,-12.3l0 -222.11 86.82 0 0 472.43 -86.82 0z"/>
 </g>
</svg>
